<svg id="canvas" height="100%" xmlns="http://www.w3.org/2000/svg" version="1.1" xmlns:xlink="http://www.w3.org/1999/xlink" viewBox="0 0 900 512"><defs><linearGradient gradientTransform="matrix(6.123233995736766e-17,1,-1,6.123233995736766e-17,0,0)"><stop stop-color="#f8c9cd" offset="0"></stop><stop stop-color="hsl(54, 78%, 88%)" offset="1"></stop></linearGradient><linearGradient gradientTransform="matrix(6.123233995736766e-17,1,-1,6.123233995736766e-17,0,0)" id="SvgjsLinearGradient1036"><stop stop-color="#f8c7cc" offset="0"></stop><stop stop-color="#f8f3c7" offset="1"></stop></linearGradient><linearGradient gradientTransform="matrix(6.123233995736766e-17,1,-1,6.123233995736766e-17,0,0)"><stop stop-color="#f8c9d7" offset="0"></stop><stop stop-color="hsl(42, 78%, 88%)" offset="1"></stop></linearGradient><linearGradient gradientTransform="matrix(6.123233995736766e-17,1,-1,6.123233995736766e-17,0,0)" id="SvgjsLinearGradient1037"><stop stop-color="#f8c9e0" offset="0"></stop><stop stop-color="hsl(30, 78%, 88%)" offset="1"></stop></linearGradient><linearGradient gradientTransform="matrix(6.123233995736766e-17,1,-1,6.123233995736766e-17,0,0)"><stop stop-color="#f8cdc9" offset="0"></stop><stop stop-color="hsl(66, 78%, 88%)" offset="1"></stop></linearGradient><linearGradient gradientTransform="matrix(6.123233995736766e-17,1,-1,6.123233995736766e-17,0,0)"><stop stop-color="#f8c9ea" offset="0"></stop><stop stop-color="hsl(18, 78%, 88%)" offset="1"></stop></linearGradient><linearGradient gradientTransform="matrix(6.123233995736766e-17,1,-1,6.123233995736766e-17,0,0)"><stop stop-color="#f8d7c9" offset="0"></stop><stop stop-color="hsl(78, 78%, 88%)" offset="1"></stop></linearGradient></defs><rect width="900" height="512" fill="#81a684ff"></rect><path d="M1030.8748885866635 554.4980334281356C991.2802344665013 587.1854922082928 941.2757594932307 609.0232853025875 888.3256319259447 615.7829109254894C835.3755043586585 622.5425365483911 760.2226511536873 627.6953122753305 713.1741231829471 595.0557871655465C666.1255952122069 562.4162620557624 635.2263822253368 474.1762026527934 606.0344641015038 419.9457602667854C576.8425459776709 365.7153178807774 539.0337085272364 318.2179181894852 538.0226144399494 269.6731328494984C537.0115203526624 221.12834750951163 570.0906252028058 175.38673590857402 599.9678995777815 128.6770482268646C629.8451739527572 81.96736054515517 671.0613953562931 18.854588674347283 717.2862606898037 -10.584993240758081C763.5111260233143 -40.024575155863445 822.3707466690968 -47.53099181842531 877.317091578845 -47.96044326376756C932.2634364885931 -48.389894709109804 989.5297629444777 -43.58551488854191 1046.964330148293 -13.161701912811566C1104.398897352108 17.262111062918777 1182.478122973544 80.02357912963245 1221.9244948017354 134.58243459061453C1261.370866629927 189.1412900515966 1299.6477174765778 266.6788102440921 1283.6425611174416 314.1914308530808C1267.6374047583054 361.7040514620695 1168.0215020687147 379.6070578153708 1125.8935566469181 419.6581582445466C1083.765611225122 459.70925867372233 1070.469542706826 521.8105746479785 1030.8748885866635 554.4980334281356C991.2802344665013 587.1854922082928 941.2757594932307 609.0232853025875 888.3256319259447 615.7829109254894 " fill="url(#SvgjsLinearGradient1036)" stroke="none" opacity="0.5"></path><path d="M393.0908677377008 308.15968626207444C348.3356229804055 339.54923647357685 295.66471889245264 357.57380080035006 239.71139247812914 363.5784648653776C183.75806606380564 369.58312893040517 108.2152689001459 380.9801062862477 57.37090925175997 344.18767065223955C6.526549603374036 307.3952350182314 -34.96468487445823 201.97730840591652 -65.35476541218645 142.8238510613284C-95.74484594991468 83.6703937167403 -126.09600317611986 40.138820571067015 -124.96957397460938 -10.733073415289255C-123.84314477309889 -61.604967401645524 -85.32992566947847 -115.30692841736251 -58.596190203123484 -162.40751285680906C-31.8624547367685 -209.5080972962556 -13.840021112212838 -267.6331633840617 35.43283882352057 -293.33658005196855C84.70569875925398 -319.03999671987543 173.27206903116036 -317.5480994313566 237.040969411277 -316.62801286425037C300.8098697913936 -315.7079262971441 368.9706120031615 -316.26397620662965 418.04624110422026 -287.81606064933106C467.12187020527904 -259.3681450920325 501.6720428452662 -198.0198186338929 531.4947440176297 -145.9405195204587C561.3174451899932 -93.86122040702452 600.8577619710227 -28.870546488196283 596.9824481384012 24.659734031274013C593.1071343057797 78.19001455074431 542.2247910886844 127.9911715578964 508.2428610219009 175.24116359636315C474.2609309551175 222.4911556348299 437.8461124949961 276.77013605057203 393.0908677377008 308.15968626207444C348.3356229804055 339.54923647357685 295.66471889245264 357.57380080035006 239.71139247812914 363.5784648653776 " fill="url(#SvgjsLinearGradient1036)" stroke="none" opacity="0.5"></path><path d="M918.3188055748651 772.9136329379144C881.7451678475591 792.1058003165144 836.9828976374354 792.7629968977553 793.5970646499527 795.2841195657763C750.2112316624701 797.8052422337973 696.112657745549 799.4903547176375 658.0038076499693 788.0403689460406C619.8949575543896 776.5903831744438 596.667362545691 754.2527053396857 564.9439640764749 726.584204936195C533.2205656072588 698.9157045327042 485.1177751391449 670.7450830248144 467.66341683467255 622.0293665250965C450.2090585302002 573.3136500253788 460.78897517884417 486.494924453108 460.2178142496409 434.289905937888C459.6466533204377 382.08488742266803 448.8363118314452 344.56242724041226 464.236451259453 308.79925543377675C479.63659068746085 273.03608362714124 520.283849944068 248.94942072961544 552.6186508176879 219.7108750980751C584.9534516913078 190.47232946653475 615.6295566203795 148.26266395628517 658.2452565011723 133.36798164453467C700.8609563819651 118.47329933278417 759.7641271210841 130.16104793787014 808.3128501024448 130.34278122757212C856.8615730838054 130.5245145172741 920.2179902810983 121.10439347570492 949.5375943893363 134.45838138274655C978.8571984975742 147.81236928978817 965.2155817747747 181.75921541109673 984.2304747518726 210.46670866982186C1003.2453677289706 239.17420192854698 1030.7700616893435 260.9857571002985 1063.6269522519237 306.7033409350973C1096.4838428145044 352.4209247698961 1164.096179031991 430.95916779824904 1181.3718181273553 484.77221167861467C1198.6474572227196 538.5852555589803 1195.336274676371 597.0217869480309 1167.28078682411 629.5816042172912C1139.225298971849 662.1414214865513 1054.53255455533 656.2424438407388 1013.0388910137892 680.131115294176C971.5452274722484 704.0197867476131 954.8924433021712 753.7214655593143 918.3188055748651 772.9136329379144C881.7451678475591 792.1058003165144 836.9828976374354 792.7629968977553 793.5970646499527 795.2841195657763 " fill="none" stroke-width="4" stroke="url(#SvgjsLinearGradient1037)" opacity="0.5"></path></svg>